# xmcd CD database file
#
# Track frame offsets:
#	150
#	12942
#	27604
#	40734
#	52034
#	64204
#	77240
#	89834
#	101782
#	116228
#	129700
#	141821
#	156776
#	171618
#	186381
#	199199
#	218461
#	228380
#	243711
#	255173
#	266855
#
# Disc length: 3717 seconds
#
# Revision: 0
# Processed by: cddbd v1.5.2PL0 Copyright (c) Steve Scherf et al.
# Submitted via: CDex 1.78
#
DISCID=430e8315
DTITLE=Various Artist - Beginners Guide To Americana - Disc 1: Waitin' For The Light To Shine (Pre War)
DYEAR=1900
DGENRE=Country
TTITLE0=Charley Patton - You're Gonna Need Somebody When You Die
TTITLE1=The Carter Family - Little Darling Pal Of Mine
TTITLE2=Ashley and Foster - Bull Dog Sal 
TTITLE3=Blind Roosevelt Graves and Brother - I'll Be Rested (When The Roll Is Called)
TTITLE4=Red Fox Chasers - Lula Wall 
TTITLE5=Henry Thomas - Bob McKinney
TTITLE6=Kentucky Ramblers - Ginseng Blues
TTITLE7=David McCarn - Gastonia Gallop
TTITLE8=Heavenly Gospel Singers - When Was Jesus Born
TTITLE9=Jimmie Rodgers - T.B. Blues 
TTITLE10=The Delmore Brothers - The Fugitive's Lament
TTITLE11=Blind Willie Johnson - Dark Was The Night, Cold Was Ground
TTITLE12=The Blue Sky Boys - Down On The Banks Of The Ohio
TTITLE13=Memphis Minnie - Chickasaw Train Blues (Low Down Dirty Thing)
TTITLE14=Roy Acuff and His Smokey Mountain Boys - Wabash Cannon Ball 
TTITLE15=Lead Belly - John Hardy 
TTITLE16=The Monroe Brothers - Nine Pound Hammer Is Too Heavy
TTITLE17=Muddy Waters - Country Blues 
TTITLE18=Woody Guthrie - Hangknot, Slipknot 
TTITLE19=Ernest Tubb - Walking The Floor Over You
TTITLE20=Robert Johnson - Last Fair Deal Gone Down 
EXTD=
EXTT0=
EXTT1=
EXTT2=
EXTT3=
EXTT4=
EXTT5=
EXTT6=
EXTT7=
EXTT8=
EXTT9=
EXTT10=
EXTT11=
EXTT12=
EXTT13=
EXTT14=
EXTT15=
EXTT16=
EXTT17=
EXTT18=
EXTT19=
EXTT20=
PLAYORDER=
